{"title":"The Sunset Limited 2011 DVDrip English Klam","uid":6538247,"size":1202000920,"categoryP":"video","categoryS":"movies","magnet":"?xt=urn:btih:64dfc237ec5b9c582953f9958cff2c6e5cfc697a&amp;dn=The+Sunset+Limited+2011+DVDrip+English+Klam&amp;tr=udp%3A%2F%2Ftracker.openbittorrent.com%3A80&amp;tr=udp%3A%2F%2Fopen.demonii.com%3A1337&amp;tr=udp%3A%2F%2Ftracker.coppersurfer.tk%3A6969&amp;tr=udp%3A%2F%2Fexodus.desync.com%3A6969","seeders":0,"leechers":1,"uploader":"Klambake","files":-1,"time":1310583472,"description":"With: Tommy Lee Jones and Samuel L. Jackson\n\nGesitueerd in een New York's huurappartement richt het verhaal zich op twee zeer verschillende mannen. De zwaar religieuze zwarte ex-gevangene (Samuel L. Jackson) dwarsboomt de zelfmoordpoging van een asociale blanke professor (Tommy Lee Jones) die zichzelf voor de aanstormende metrotrein 'The Sunset Limited' probeerde te gooien. Terwijl de ene man contact probeert te maken op een rationeel, spiritueel en emotioneel niveau, blijft de andere standvastig in zijn zuurverdiende wanhoop steken. Opgesloten in een filosofisch debat verdedigen beide mannen hun persoonlijke credo en proberen ze de ander daarvan te overtuigen.\n\nTwo men in an apartment with their opposing beliefs.\n\n------------------ Dutch Friends ------------------\nYou can find my Friends at: http://www.Film-Test.nl \n------ They got my dutchs subs ---- and more ------\n\nGeneral:\n\nComplete name                    : The Sunset Limited\\The Sunset Limited.avi\nFormat                           : AVI\nFormat/Info                      : Audio Video Interleave\nFile size                        : 1.12 GiB\nDuration                         : 1h 30mn\nOverall bit rate                 : 1 763 Kbps\n\nVideo:\n\nFormat                           : MPEG-4 Visual\nFormat profile                   : Simple@L3\nFormat settings, BVOP            : No\nFormat settings, QPel            : No\nFormat settings, GMC             : No warppoints\nFormat settings, Matrix          : Default (H.263)\nCodec ID                         : XVID\nCodec ID/Hint                    : XviD\nDuration                         : 1h 30mn\nBit rate                         : 1 305 Kbps\nWidth                            : 652 pixels\nHeight                           : 352 pixels\nDisplay aspect ratio             : 1.852\nFrame rate                       : 23.976 fps\nColor space                      : YUV\nChroma subsampling               : 4:2:0\nBit depth                        : 8 bits\nScan type                        : Progressive\nBits/(Pixel*Frame)               : 0.237\nStream size                      : 848 MiB (74%)\nWriting library                  : XviD 1.1.2 (UTC 2006-11-01)\n\nAudio:\n\nFormat                           : AC-3\nFormat/Info                      : Audio Coding 3\nMode extension                   : CM (complete main)\nCodec ID                         : 2000\nDuration                         : 1h 30mn\nBit rate mode                    : Constant\nBit rate                         : 448 Kbps\nChannel(s)                       : 6 channels\nChannel positions                : Front: L C R, Side: L R, LFE\nSampling rate                    : 48.0 KHz\nBit depth                        : 16 bits\nStream size                      : 291 MiB (25%)\nAlignment                        : Aligned on interleaves\nInterleave, duration             : 32 ms (0.77 video frame)\nInterleave, preload duration     : 32 ms\n\n","torrent":{"xt":"urn:btih:64dfc237ec5b9c582953f9958cff2c6e5cfc697a","amp;dn":"The+Sunset+Limited+2011+DVDrip+English+Klam","amp;tr":["udp%3A%2F%2Ftracker.openbittorrent.com%3A80","udp%3A%2F%2Fopen.demonii.com%3A1337","udp%3A%2F%2Ftracker.coppersurfer.tk%3A6969","udp%3A%2F%2Fexodus.desync.com%3A6969"],"infoHash":"64dfc237ec5b9c582953f9958cff2c6e5cfc697a","infoHashBuffer":{"type":"Buffer","data":[100,223,194,55,236,91,156,88,41,83,249,149,140,255,44,110,92,252,105,122]},"announce":[],"urlList":[]}}